<svg xmlns="http://www.w3.org/2000/svg" viewBox="0 0 100 100"><defs><style>.cls-1{fill:#07456f;}.cls-2{fill:#009e9c;}</style></defs><title>Asset 15</title><g id="Layer_2" data-name="Layer 2"><g id="Layer_1-2" data-name="Layer 1"><path class="cls-1" d="M68.36,25.71H31.64a6,6,0,0,0-6,6V68.4a6,6,0,0,0,6,6H68.36a6,6,0,0,0,6-6V31.68A6,6,0,0,0,68.36,25.71ZM71.58,68.4a3.22,3.22,0,0,1-3.22,3.22H31.64a3.22,3.22,0,0,1-3.22-3.22V31.68a3.23,3.23,0,0,1,3.22-3.22H68.36a3.22,3.22,0,0,1,3.22,3.22Z"/><path class="cls-1" d="M73,18.82H27.05a8.28,8.28,0,0,0-8.27,8.27V73a8.28,8.28,0,0,0,8.27,8.26H73A8.28,8.28,0,0,0,81.22,73V27.09A8.28,8.28,0,0,0,73,18.82ZM78.46,73A5.5,5.5,0,0,1,73,78.5H27.05A5.5,5.5,0,0,1,21.54,73V27.09a5.5,5.5,0,0,1,5.51-5.51H73a5.5,5.5,0,0,1,5.51,5.51Z"/><path class="cls-2" d="M55,85.77a1.37,1.37,0,0,0-1.37,1.38V98.62a1.38,1.38,0,1,0,2.75,0V87.15A1.38,1.38,0,0,0,55,85.77Z"/><path class="cls-2" d="M45,85.77a1.38,1.38,0,0,0-1.38,1.38V98.62a1.38,1.38,0,1,0,2.76,0V87.15A1.38,1.38,0,0,0,45,85.77Z"/><path class="cls-2" d="M35.11,85.77a1.37,1.37,0,0,0-1.37,1.38V98.62a1.38,1.38,0,1,0,2.75,0V87.15A1.38,1.38,0,0,0,35.11,85.77Z"/><path class="cls-2" d="M64.89,85.77a1.38,1.38,0,0,0-1.38,1.38V98.62a1.38,1.38,0,1,0,2.75,0V87.15A1.37,1.37,0,0,0,64.89,85.77Z"/><path class="cls-2" d="M46.42,12.85V1.38a1.38,1.38,0,0,0-2.76,0V12.85a1.38,1.38,0,0,0,2.76,0Z"/><path class="cls-2" d="M56.34,12.85V1.38a1.38,1.38,0,1,0-2.75,0V12.85a1.38,1.38,0,1,0,2.75,0Z"/><path class="cls-2" d="M66.26,12.85V1.38a1.38,1.38,0,1,0-2.75,0V12.85a1.38,1.38,0,1,0,2.75,0Z"/><path class="cls-2" d="M36.49,12.85V1.38a1.38,1.38,0,1,0-2.75,0V12.85a1.38,1.38,0,1,0,2.75,0Z"/><path class="cls-2" d="M98.62,43.66H87.15a1.38,1.38,0,0,0,0,2.76H98.62a1.38,1.38,0,0,0,0-2.76Z"/><path class="cls-2" d="M98.62,53.59H87.15a1.38,1.38,0,1,0,0,2.75H98.62a1.38,1.38,0,1,0,0-2.75Z"/><path class="cls-2" d="M98.62,63.51H87.15a1.38,1.38,0,1,0,0,2.75H98.62a1.38,1.38,0,1,0,0-2.75Z"/><path class="cls-2" d="M98.62,33.74H87.15a1.38,1.38,0,1,0,0,2.75H98.62a1.38,1.38,0,1,0,0-2.75Z"/><path class="cls-2" d="M12.85,53.59H1.38a1.38,1.38,0,1,0,0,2.75H12.85a1.38,1.38,0,1,0,0-2.75Z"/><path class="cls-2" d="M12.85,43.66H1.38a1.38,1.38,0,0,0,0,2.76H12.85a1.38,1.38,0,0,0,0-2.76Z"/><path class="cls-2" d="M12.85,33.74H1.38a1.38,1.38,0,1,0,0,2.75H12.85a1.38,1.38,0,1,0,0-2.75Z"/><path class="cls-2" d="M12.85,63.51H1.38a1.38,1.38,0,1,0,0,2.75H12.85a1.38,1.38,0,1,0,0-2.75Z"/><path class="cls-2" d="M48.71,40.23a2.07,2.07,0,0,0-3.41,0l-5,16.37a.83.83,0,0,0,0,.22c0,.66.94,1.11,1.67,1.11.46,0,.81-.15.93-.55l1-3.59h6.24l1,3.59a.85.85,0,0,0,.91.55c.76,0,1.69-.47,1.69-1.11a.59.59,0,0,0,0-.22ZM44.47,51.65,47,43l2.52,8.66Z"/><path class="cls-2" d="M57.1,39.48c-.66,0-1.34.25-1.34.86V57.05c0,.58.68.88,1.34.88s1.33-.3,1.33-.88V40.34C58.43,39.73,57.78,39.48,57.1,39.48Z"/></g></g></svg>