<svg xmlns="http://www.w3.org/2000/svg" viewBox="0 0 100 100"><defs><style>.cls-1{fill:#0f0a3c;}.cls-2{fill:#009e9c;}.cls-3{fill:#07456f;}.cls-4{fill:#ccffea;}</style></defs><title>Asset 17</title><g id="Layer_2" data-name="Layer 2"><g id="Layer_1-2" data-name="Layer 1"><path class="cls-1" d="M14.65,100a2.93,2.93,0,0,1-2.93-2.93V85.16a2.93,2.93,0,0,1,5.86,0V97.07A2.93,2.93,0,0,1,14.65,100Z"/><path class="cls-1" d="M52.93,85.16V97.07a2.93,2.93,0,0,1-5.86,0V85.16a2.93,2.93,0,0,1,5.86,0Z"/><path class="cls-1" d="M85.35,100a2.93,2.93,0,0,1-2.93-2.93V85.16a2.93,2.93,0,0,1,5.86,0V97.07A2.93,2.93,0,0,1,85.35,100Z"/><path class="cls-1" d="M52.93,85.16V97.07A2.9,2.9,0,0,1,50,100V82.23A2.9,2.9,0,0,1,52.93,85.16Z"/><path class="cls-1" d="M52.93,44.14V67.58a2.93,2.93,0,0,1-5.86,0V44.14a2.93,2.93,0,0,1,5.86,0Z"/><path class="cls-1" d="M88.28,61.72v5.86a2.93,2.93,0,0,1-5.86,0V61.72a2.9,2.9,0,0,0-2.93-2.93h-59a2.9,2.9,0,0,0-2.93,2.93v5.86a2.93,2.93,0,1,1-5.86,0V61.72a8.78,8.78,0,0,1,8.79-8.79h59A8.78,8.78,0,0,1,88.28,61.72Z"/><path class="cls-2" d="M20.51,88.09H8.79A8.8,8.8,0,0,1,0,79.3V73.44a8.8,8.8,0,0,1,8.79-8.79H20.51a8.8,8.8,0,0,1,8.79,8.79V79.3A8.81,8.81,0,0,1,20.51,88.09Z"/><path class="cls-2" d="M55.86,64.65H44.14a8.78,8.78,0,0,0-8.79,8.79V79.3a8.78,8.78,0,0,0,8.79,8.79H55.86a8.78,8.78,0,0,0,8.79-8.79V73.44A8.78,8.78,0,0,0,55.86,64.65Z"/><path class="cls-2" d="M91.21,88.09H79.49A8.81,8.81,0,0,1,70.7,79.3V73.44a8.8,8.8,0,0,1,8.79-8.79H91.21A8.8,8.8,0,0,1,100,73.44V79.3A8.8,8.8,0,0,1,91.21,88.09Z"/><path class="cls-2" d="M20.51,100H8.79a2.93,2.93,0,0,1,0-5.86H20.51a2.93,2.93,0,0,1,0,5.86Z"/><path class="cls-2" d="M58.79,97.07A2.9,2.9,0,0,1,55.86,100H44.14a2.93,2.93,0,0,1,0-5.86H55.86A2.9,2.9,0,0,1,58.79,97.07Z"/><path class="cls-2" d="M91.21,100H79.49a2.93,2.93,0,1,1,0-5.86H91.21a2.93,2.93,0,1,1,0,5.86Z"/><path class="cls-2" d="M58.79,97.07A2.9,2.9,0,0,1,55.86,100H50V94.14h5.86A2.9,2.9,0,0,1,58.79,97.07Z"/><path class="cls-2" d="M64.65,73.44V79.3a8.78,8.78,0,0,1-8.79,8.79H50V64.65h5.86A8.78,8.78,0,0,1,64.65,73.44Z"/><path class="cls-3" d="M55.86,29.49H44.14a2.9,2.9,0,0,0-2.93,2.93V44.14a2.9,2.9,0,0,0,2.93,2.93H55.86a2.9,2.9,0,0,0,2.93-2.93V32.42A2.9,2.9,0,0,0,55.86,29.49Z"/><path class="cls-4" d="M67.58,0H32.42a8.78,8.78,0,0,0-8.79,8.79V26.56a8.78,8.78,0,0,0,8.79,8.79H67.58a8.78,8.78,0,0,0,8.79-8.79V8.79A8.78,8.78,0,0,0,67.58,0Z"/><path class="cls-4" d="M64.65,44.14a2.9,2.9,0,0,1-2.93,2.93H38.28a2.93,2.93,0,0,1,0-5.86H61.72A2.9,2.9,0,0,1,64.65,44.14Z"/><path class="cls-1" d="M67.58,5.86H32.42a2.9,2.9,0,0,0-2.93,2.93V26.56a2.9,2.9,0,0,0,2.93,2.93H67.58a2.9,2.9,0,0,0,2.93-2.93V8.79A2.9,2.9,0,0,0,67.58,5.86Z"/></g></g></svg>