<svg xmlns="http://www.w3.org/2000/svg" viewBox="0 0 60.76 66.8"><defs><style>.cls-1{fill:#d65a4a;}</style></defs><title>Asset 13</title><g id="Layer_2" data-name="Layer 2"><g id="Layer_1-2" data-name="Layer 1"><path class="cls-1" d="M59.67.26C59.53-.24,58.11.14,58,.17,46.79,2.43,40.86,12.78,36,22.06a127.54,127.54,0,0,0-5.48,12,101.06,101.06,0,0,0-4.09-18.34C24.83,10.86,22.69,5.15,17.51,3.2,13,1.51,8,3.86,4.43,6.61c-10.17,7.87-.28,20,4.34,28.23l9.75,17.27,5.06,9c1.07,1.9,1.71,3.77,4.18,3.62l.48-.06c.07.59.16,1.18.28,1.78.37,1.85,7.69-3.27,8.24-4A143.84,143.84,0,0,0,54.05,33.28C58.6,23,62.82,11.54,59.67.26Z"/></g></g></svg>