<svg xmlns="http://www.w3.org/2000/svg" viewBox="0 0 192.97 170.97"><defs><style>.cls-1{fill:none;stroke:#000000;}</style></defs><title>Asset 14</title><g id="Layer_2" data-name="Layer 2"><g id="Layer_1-2" data-name="Layer 1"><path class="cls-1" d="M70.25.48c10.92,3.51,47.05,16.61,60,50,2.85,7.33,11,28.27,0,40-10.63,11.36-35.18,9.77-40,0-4.24-8.61,6-25.21,20-30,16-5.48,35.77,4.85,40,20,5,17.85-13.68,35.06-30,40-18.41,5.57-42.42-1.89-50-20-10.11-24.18,17.26-47.71,20-50,16.55-13.82,40.1-17.39,60-10,30.69,11.39,38.44,43.54,40,50,5.13,21.25,1.2,46-10,60-24.75,30.94-99.33,27.23-180-20"/></g></g></svg>