<svg xmlns="http://www.w3.org/2000/svg" viewBox="0 0 216.47 188.42"><defs><style>.cls-1{fill:#f7f7f7;}</style></defs><title>Asset 26</title><g id="Layer_2" data-name="Layer 2"><g id="Layer_1-2" data-name="Layer 1"><path class="cls-1" d="M75.55,5,36.42,90.07l-.94,2.05.9,2.06L60.26,151l-16,32.42L5.45,92.21,44.21,5H75.55m7.8-5H41L0,92.16l41,96.26L65.26,148,41,92.16,83.35,0Z"/><path class="cls-1" d="M153.26,34l-73,149H49.12L136.19,5l17.07,30m-2-6L133.07,0l-92,188h42.3L155.26,43Z"/><path class="cls-1" d="M172.26,5,211,92.21l-38.81,91.21H140.79l39.3-89.24.91-2.06-.94-2.05L140.93,5h31.33m3.25-5H133.12l42.39,92.16-42.39,96.26h42.39l41-96.26L175.51,0Z"/></g></g></svg>