<svg xmlns="http://www.w3.org/2000/svg" viewBox="0 0 33.2 41.96"><defs><style>.cls-1{fill:#009e9c;}.cls-2,.cls-3{fill:none;stroke:#000;stroke-linecap:round;stroke-linejoin:round;}.cls-2{stroke-width:0.44px;}.cls-3{stroke-width:0.89px;}</style></defs><title>Asset 29</title><g id="Layer_2" data-name="Layer 2"><g id="Layer_1-2" data-name="Layer 1"><path class="cls-1" d="M4.76,4.06c-1,3.53,4,8,6.18,9.42l3.54.29s.88-9.42-.3-12.36S5.81.52,4.76,4.06Z"/><path class="cls-1" d="M28.31,9.32c-.42,3.91-6,4.61-10,4.61l-3.91-.14A29.21,29.21,0,0,1,20,5C23.71,1.23,28.73,5.41,28.31,9.32Z"/><path class="cls-2" d="M16.75,13.48A26.52,26.52,0,0,1,28.07,8.69"/><path class="cls-1" d="M11.74,41.08,13.5,13.9H19L17.68,42Z"/><path class="cls-3" d="M.44,41.44s.15-19,.23-27.67L32.75,14l-.66,27.44Z"/><path class="cls-3" d="M.67,20.07l31.86.27"/><path class="cls-2" d="M2.52,10.63a50.24,50.24,0,0,1,9.23,3.14"/></g></g></svg>