<svg xmlns="http://www.w3.org/2000/svg" viewBox="0 0 103.7 100"><defs><style>.cls-1{fill:#0f0a3c;}.cls-2{fill:#a4c2db;}.cls-3{fill:#ccffea;}.cls-4{fill:#07456f;}.cls-5{fill:#555a6e;}.cls-6{fill:#009e9c;}</style></defs><title>Asset 16</title><g id="Layer_2" data-name="Layer 2"><g id="Layer_1-2" data-name="Layer 1"><path class="cls-1" d="M100,77.78H0V29.63a7.41,7.41,0,0,1,7.41-7.41H92.59A7.41,7.41,0,0,1,100,29.63Z"/><path class="cls-1" d="M92.59,77.78H0V29.63a7.41,7.41,0,0,1,7.41-7.41H85.19a7.4,7.4,0,0,1,7.4,7.41Z"/><path class="cls-2" d="M7.41,87H92.59A7.41,7.41,0,0,0,100,79.63V77.78H0v1.85A7.41,7.41,0,0,0,7.41,87Z"/><path class="cls-3" d="M85.19,87H7.41A7.41,7.41,0,0,1,0,79.63V77.78H92.59v1.85A7.4,7.4,0,0,1,85.19,87Z"/><path class="cls-2" d="M38.89,87H55.56v7.4H38.89Z"/><path class="cls-3" d="M38.89,90.74H50v3.7H38.89Z"/><path class="cls-3" d="M64.81,100h-37V98.15a3.71,3.71,0,0,1,3.7-3.71H61.11a3.7,3.7,0,0,1,3.7,3.71Z"/><path class="cls-2" d="M64.81,100H53.7V98.15a3.71,3.71,0,0,1,3.71-3.71h3.7a3.7,3.7,0,0,1,3.7,3.71Z"/><path class="cls-3" d="M100,70.37H66.67A3.71,3.71,0,0,1,63,66.67V3.7A3.71,3.71,0,0,1,66.67,0H100a3.7,3.7,0,0,1,3.7,3.7v63A3.7,3.7,0,0,1,100,70.37Z"/><path class="cls-4" d="M94.44,64.81H72.22a3.7,3.7,0,0,1-3.7-3.7V13a3.7,3.7,0,0,1,3.7-3.7H94.44A3.71,3.71,0,0,1,98.15,13V61.11A3.7,3.7,0,0,1,94.44,64.81Z"/><path class="cls-5" d="M86.11,5.56H80.56a.93.93,0,1,1,0-1.86h5.55a.93.93,0,0,1,0,1.86Z"/><path class="cls-6" d="M90.74,37H75.93a1.85,1.85,0,0,1-1.86-1.85V16.67a1.86,1.86,0,0,1,1.86-1.86H90.74a1.85,1.85,0,0,1,1.85,1.86V35.19A1.85,1.85,0,0,1,90.74,37Z"/><path class="cls-6" d="M79.63,48.15h-3.7a1.85,1.85,0,0,1-1.86-1.85V42.59a1.85,1.85,0,0,1,1.86-1.85h3.7a1.85,1.85,0,0,1,1.85,1.85V46.3A1.85,1.85,0,0,1,79.63,48.15Z"/><path class="cls-6" d="M90.74,59.26H75.93a1.85,1.85,0,0,1-1.86-1.85V53.7a1.85,1.85,0,0,1,1.86-1.85H90.74a1.85,1.85,0,0,1,1.85,1.85v3.71A1.85,1.85,0,0,1,90.74,59.26Z"/><path class="cls-6" d="M90.74,48.15H87a1.85,1.85,0,0,1-1.85-1.85V42.59A1.85,1.85,0,0,1,87,40.74h3.7a1.85,1.85,0,0,1,1.85,1.85V46.3A1.85,1.85,0,0,1,90.74,48.15Z"/><path class="cls-3" d="M20.37,62a2.73,2.73,0,0,1-2-.82L9.15,52a2.76,2.76,0,0,1,0-3.92l9.26-9.26a2.77,2.77,0,0,1,3.92,3.92L15,50l7.29,7.3a2.78,2.78,0,0,1-2,4.74Z"/><path class="cls-3" d="M46.3,62a2.75,2.75,0,0,1-2-.82,2.79,2.79,0,0,1,0-3.93L51.63,50l-7.3-7.3a2.78,2.78,0,0,1,3.93-3.92L57.52,48a2.78,2.78,0,0,1,0,3.92l-9.26,9.26a2.73,2.73,0,0,1-2,.82Z"/><path class="cls-3" d="M29.63,62a2.9,2.9,0,0,1-1-.2,2.77,2.77,0,0,1-1.55-3.61l7.41-18.52a2.78,2.78,0,0,1,5.16,2.06L32.21,60.29A2.78,2.78,0,0,1,29.63,62Z"/></g></g></svg>