<svg xmlns="http://www.w3.org/2000/svg" viewBox="0 0 72 17"><defs><style>.cls-1{fill:#f7f7f7;}.cls-2{fill:#009e9c;}</style></defs><title>Asset 30</title><g id="Layer_2" data-name="Layer 2"><g id="Layer_1-2" data-name="Layer 1"><polygon class="cls-1" points="26.48 0.38 18.35 16 21.48 16 26.48 6 28.98 11 32.1 11 26.48 0.38"/><polyline class="cls-1" points="31 14 33.88 14 35.21 17 31.88 17 30.55 13.87"/><polygon class="cls-1" points="13 0 10 0 10 9.64 0 0.1 0.06 4.22 13 16.27 13 0"/><rect class="cls-1" x="60" width="3" height="17"/><rect class="cls-1" x="69" width="3" height="17"/><rect class="cls-1" x="64.4" y="7" width="3" height="3"/><polygon class="cls-1" points="40.25 0 36.77 7.83 40.25 16 43.85 16 40.25 7.83 43.85 0 40.25 0"/><polygon class="cls-2" points="48.16 0 51.81 0 43.94 16 40.34 16 48.16 0"/><polygon class="cls-1" points="51.85 0 55.33 7.83 51.85 16 48.25 16 51.85 7.83 48.25 0 51.85 0"/></g></g></svg>