<svg xmlns="http://www.w3.org/2000/svg" viewBox="0 0 71.85 16.54"><defs><style>.cls-1{fill:#0f0a3c;}.cls-2{fill:#009e9c;}</style></defs><title>Asset 31</title><g id="Layer_2" data-name="Layer 2"><g id="Layer_1-2" data-name="Layer 1"><polygon class="cls-1" points="26.22 0 17.5 16.48 20.86 16.48 26.22 5.93 28.91 11.21 32.26 11.21 26.22 0"/><polyline class="cls-1" points="30.25 13.84 33.6 13.84 34.94 16.48 31.59 16.48 30.25 13.84"/><polygon class="cls-1" points="12.8 0.08 9.77 0.08 9.77 9.79 0 0.18 0.06 4.33 12.8 16.46 12.8 0.08"/><rect class="cls-1" x="60.4" y="0.18" width="2.91" height="16.3"/><rect class="cls-1" x="68.95" y="0.18" width="2.91" height="16.3"/><rect class="cls-1" x="64.63" y="6.24" width="2.84" height="2.84"/><polygon class="cls-1" points="40.02 0.18 36.46 8.18 40.02 16.54 43.7 16.54 40.02 8.18 43.7 0.18 40.02 0.18"/><polygon class="cls-2" points="48.02 0.18 51.75 0.18 43.7 16.54 40.02 16.54 48.02 0.18"/><polygon class="cls-1" points="51.7 0.18 55.26 8.18 51.7 16.54 48.02 16.54 51.7 8.18 48.02 0.18 51.7 0.18"/></g></g></svg>