<svg xmlns="http://www.w3.org/2000/svg" viewBox="0 0 95.7 100"><defs><style>.cls-1{fill:#0f0a3c;}.cls-2{fill:#ccffea;}.cls-3{fill:#009e9c;}.cls-4{fill:#07456f;}.cls-5{fill:#adc0ec;}.cls-6{fill:#f7f7f7;}</style></defs><title>Asset 18</title><g id="Layer_2" data-name="Layer 2"><g id="Layer_1-2" data-name="Layer 1"><circle class="cls-1" cx="47.85" cy="52.15" r="47.85"/><path class="cls-2" d="M40.19,74a7.21,7.21,0,0,1,6.09,3.32.2.2,0,0,0,.15.09h0a.18.18,0,0,0,.14-.06,10.61,10.61,0,0,1,7.94-3.58,10.76,10.76,0,0,1,3,.42L54,65.27H41.68l-3.52,9A7.22,7.22,0,0,1,40.19,74Z"/><path class="cls-3" d="M36.44,83.24a.22.22,0,0,0,.08.13.21.21,0,0,0,.12,0h0a13.25,13.25,0,0,1,2.08-.16,13.11,13.11,0,0,1,9,3.53.17.17,0,0,0,.13,0,.15.15,0,0,0,.13,0,13.14,13.14,0,0,1,9-3.53A13.43,13.43,0,0,1,59,83.4h0a.21.21,0,0,0,.11,0,.22.22,0,0,0,.08-.13,16.19,16.19,0,0,1,2.65-6.74,10.78,10.78,0,0,0-15.46.73A7.43,7.43,0,0,0,34.11,77,16,16,0,0,1,36.44,83.24Z"/><path class="cls-4" d="M36.64,83.21A16.42,16.42,0,0,0,6.71,76.59,48,48,0,0,0,25.53,94.48,13.37,13.37,0,0,1,36.64,83.21Z"/><path class="cls-4" d="M75.3,69.23a16.41,16.41,0,0,0-16.23,14A13.38,13.38,0,0,1,70.18,94.48,48.08,48.08,0,0,0,89,76.59,16.39,16.39,0,0,0,75.3,69.23Z"/><path class="cls-1" d="M57,83a13.3,13.3,0,0,0-9.11,3.59,13.35,13.35,0,0,0-22.32,7.85,47.91,47.91,0,0,0,44.65,0A13.37,13.37,0,0,0,57,83Z"/><path class="cls-5" d="M52.25,65.27h-3l.38,3a1.46,1.46,0,1,0,2.9-.37Z"/><path class="cls-5" d="M43.45,65.27l-.77,6.13A1.47,1.47,0,0,0,44,73h.18a1.46,1.46,0,0,0,1.45-1.28l.82-6.5Z"/><path class="cls-4" d="M32.83,38.23c0-1.6.06-3.19.18-4.76-4.7,2.64-7.94,8.54-7.94,15.36a19.65,19.65,0,0,0,2.59,10,.88.88,0,0,0,1.07.36,19.05,19.05,0,0,1,7.08-1.4A63.7,63.7,0,0,1,32.83,38.23Z"/><path class="cls-4" d="M62.7,33.47c.11,1.57.17,3.16.17,4.76a63.7,63.7,0,0,1-3,19.51A19.05,19.05,0,0,1,67,59.14a1,1,0,0,0,.33.06.85.85,0,0,0,.74-.42,19.65,19.65,0,0,0,2.59-10C70.63,42,67.4,36.11,62.7,33.47Z"/><path class="cls-4" d="M40.37,60v4.5a1,1,0,0,0,1,1h13a1,1,0,0,0,1-1V60Z"/><path class="cls-2" d="M59.74,17.64H36a63.31,63.31,0,0,0-3.33,20.59,63,63,0,0,0,3.61,21.38.86.86,0,0,0,.81.57H58.64a.88.88,0,0,0,.82-.57,63,63,0,0,0,3.6-21.38A63.31,63.31,0,0,0,59.74,17.64Z"/><path class="cls-4" d="M42.22,17.64v3.24a1,1,0,0,0,1,1h9.3a1,1,0,0,0,1-1V17.64Z"/><path class="cls-4" d="M47.85,0a.85.85,0,0,0-.54.19c-4.37,3.54-8,8.89-10.63,15.5-.27.7-.53,1.42-.78,2.15H59.8c-.24-.73-.5-1.45-.78-2.15C56.43,9.08,52.76,3.73,48.4.19A.88.88,0,0,0,47.85,0Z"/><circle class="cls-4" cx="47.85" cy="35.34" r="9.96"/><circle class="cls-3" cx="47.85" cy="35.34" r="6.39"/><path class="cls-3" d="M43.8,35.34A6.39,6.39,0,0,0,49,41.62a6.39,6.39,0,1,1,0-12.57A6.41,6.41,0,0,0,43.8,35.34Z"/><path class="cls-6" d="M19.36,34.91a.57.57,0,0,1-.51-.34C17.76,31.93,17,31.13,14.32,30a.55.55,0,0,1,0-1c2.64-1.09,3.44-1.9,4.53-4.53a.55.55,0,0,1,.51-.34.53.53,0,0,1,.51.34C21,27.12,21.77,27.93,24.4,29a.55.55,0,0,1,0,1c-2.63,1.09-3.44,1.89-4.53,4.53a.55.55,0,0,1-.51.34Z"/><path class="cls-6" d="M78.22,39.34a.48.48,0,0,1-.45-.3,5.87,5.87,0,0,0-4-4,.5.5,0,0,1-.3-.45.48.48,0,0,1,.3-.45,5.89,5.89,0,0,0,4-4,.48.48,0,0,1,.45-.3.5.5,0,0,1,.45.3,5.85,5.85,0,0,0,4,4,.48.48,0,0,1,.3.45.5.5,0,0,1-.3.45,5.83,5.83,0,0,0-4,4,.5.5,0,0,1-.45.3Z"/><path class="cls-6" d="M73.14,18.76a.56.56,0,0,1-.53-.35c-1.11-2.69-1.94-3.52-4.63-4.63a.58.58,0,0,1-.35-.53.57.57,0,0,1,.35-.52c2.69-1.12,3.52-1.94,4.63-4.64a.58.58,0,0,1,.53-.35.57.57,0,0,1,.52.35c1.12,2.7,1.94,3.52,4.64,4.64a.57.57,0,0,1,.35.52.58.58,0,0,1-.35.53c-2.7,1.11-3.52,1.94-4.64,4.63a.55.55,0,0,1-.52.35Z"/></g></g></svg>